<svg xmlns="http://www.w3.org/2000/svg" viewBox="0 0 24 24" fill="none"><path d="M12 2C6.48 2 2 6.48 2 12c0 4.42 2.87 8.17 6.84 9.49.5.09.68-.22.68-.48 0-.24-.01-.87-.01-1.71-2.78.61-3.37-1.16-3.37-1.16-.45-1.16-1.11-1.47-1.11-1.47-.91-.62.07-.61.07-.61 1.01.07 1.54 1.04 1.54 1.04.89 1.53 2.34 1.09 2.91.83.09-.65.35-1.09.64-1.34-2.22-.25-4.56-1.11-4.56-4.95 0-1.09.39-1.98 1.03-2.68-.1-.26-.45-1.28.1-2.66 0 0 .84-.27 2.75 1.02A9.58 9.58 0 0112 6.8c.85.004 1.71.115 2.51.338 1.91-1.29 2.75-1.02 2.75-1.02.55 1.38.2 2.4.1 2.66.64.7 1.03 1.59 1.03 2.68 0 3.85-2.34 4.7-4.57 4.95.36.31.68.92.68 1.85 0 1.33-.01 2.4-.01 2.73 0 .26.18.58.69.48A10.01 10.01 0 0022 12c0-5.52-4.48-10-10-10z" fill="#111"/></svg>